<svg version="1.1" id="Layer_1" xmlns="http://www.w3.org/2000/svg" xmlns:xlink="http://www.w3.org/1999/xlink" x="0px" y="0px"
	 width="100%" viewBox="0 0 1024 1024" enable-background="new 0 0 1024 1024" xml:space="preserve">
<path fill="#000000" opacity="1.000000" stroke="none" 
	d="
M477.511292,390.207581 
	C503.718048,398.518280 520.109497,418.882202 521.679199,445.788788 
	C522.634399,462.162201 516.600586,476.441010 506.353973,489.036957 
	C505.368317,490.248627 504.234070,491.133789 502.497589,490.767059 
	C485.533997,487.184540 468.469513,483.864471 453.831970,473.692261 
	C446.914337,468.884918 441.058624,463.020355 436.749390,455.709686 
	C434.522888,451.932404 433.083466,447.900421 432.487366,443.535156 
	C431.181091,433.969727 438.229889,427.322937 447.704651,429.363770 
	C458.269897,431.639374 465.674408,438.464783 471.966339,446.705383 
	C476.434052,452.556793 479.514984,459.253052 483.032104,465.682098 
	C485.374207,469.963409 487.904633,474.447845 493.718262,473.994843 
	C497.545258,473.696655 499.644318,468.953339 499.850342,461.586914 
	C500.433899,440.722992 486.850311,419.840729 467.492615,411.842834 
	C446.297943,403.085999 426.184143,416.398346 427.516541,439.212219 
	C428.791199,461.037628 439.253754,478.548279 456.974152,491.318634 
	C464.276184,496.580933 473.013000,497.512054 481.332336,494.255585 
	C487.171143,491.970093 490.766602,494.337372 494.857025,497.618347 
	C493.950165,500.491425 491.434265,501.382080 489.299438,502.350189 
	C467.647949,512.168884 446.472595,511.355682 426.538391,498.124298 
	C406.788147,485.014954 397.891632,466.126038 399.865906,442.514648 
	C402.181610,414.819366 426.060577,391.361786 453.846710,388.590851 
	C461.756714,387.802032 469.460022,388.095337 477.511292,390.207581 
z"/>
<path fill="#000000" opacity="1.000000" stroke="none" 
	d="
M562.885864,566.144531 
	C569.787781,576.388306 576.481323,586.337646 583.193970,596.274048 
	C583.449646,596.652405 583.890625,596.905518 584.272034,597.240540 
	C585.464355,596.283752 584.941162,595.031189 584.944153,593.977722 
	C585.008362,571.489746 585.023376,549.001770 585.050293,526.513733 
	C585.057434,520.548401 585.483276,520.133728 591.652344,520.031494 
	C605.364746,519.804138 605.374634,519.804138 605.373413,533.637390 
	C605.370544,566.453613 605.280823,599.270264 605.437317,632.085693 
	C605.458862,636.599182 604.102356,637.862854 599.563843,638.337830 
	C590.410339,639.295776 584.880981,636.187866 579.858154,628.101807 
	C566.507263,606.608704 551.987244,585.841675 537.914429,564.797729 
	C536.722961,563.016052 535.399170,561.322937 533.798401,559.123535 
	C532.646423,561.446777 533.015686,563.417236 532.988159,565.291565 
	C532.657898,587.772827 533.377869,610.259644 532.520813,632.742737 
	C532.360779,636.940735 530.874329,638.388306 526.871399,638.134644 
	C523.553284,637.924377 520.210449,638.055786 516.879639,638.105896 
	C513.565613,638.155762 512.013123,636.638855 512.033997,633.273315 
	C512.147339,614.951660 512.050232,596.627380 512.324402,578.308472 
	C512.573547,561.656616 513.017151,545.006409 512.192444,528.365112 
	C511.807495,520.597046 512.170593,520.620972 519.747192,519.764893 
	C528.398254,518.787476 533.763611,521.608276 538.300781,529.268677 
	C545.757507,541.858582 554.487549,553.694214 562.885864,566.144531 
z"/>
<path fill="#000000" opacity="1.000000" stroke="none" 
	d="
M777.444702,596.760864 
	C785.099854,610.188232 793.285583,622.916443 800.479614,636.907227 
	C796.109985,639.013977 791.900330,637.632263 787.965881,638.229675 
	C781.208679,639.255493 777.324158,636.417664 774.222717,630.417419 
	C768.877625,620.076660 762.696533,610.167969 756.863647,600.079590 
	C756.042725,598.659729 755.539185,596.548096 753.714539,596.476379 
	C747.573608,596.235168 741.406433,596.081787 735.276367,596.406189 
	C732.535828,596.551270 733.177002,599.415222 733.162598,601.284607 
	C733.084106,611.442017 732.951294,621.603516 733.166138,631.756653 
	C733.264709,636.413879 731.732727,638.326538 726.867310,638.242371 
	C709.952515,637.949707 712.785706,640.133911 712.720520,624.421021 
	C712.585083,591.782959 712.806274,559.143372 712.638855,526.505676 
	C712.613281,521.526184 714.071533,519.748901 719.145996,519.832092 
	C734.462036,520.083191 749.787720,519.733398 765.104065,519.972839 
	C783.181885,520.255432 797.930298,532.636414 801.727173,550.262512 
	C805.413818,567.377014 796.963196,583.889648 780.558533,591.816650 
	C778.747314,592.691833 775.373535,592.801147 777.444702,596.760864 
M754.485413,540.223633 
	C748.825806,540.215027 743.163513,540.308044 737.507629,540.158569 
	C734.266663,540.072998 733.077942,541.408081 733.116577,544.592896 
	C733.223572,553.413818 733.216492,562.238037 733.097046,571.058838 
	C733.052551,574.348450 734.078674,575.946716 737.658630,575.878113 
	C746.810974,575.702942 755.972046,575.932739 765.122009,575.700745 
	C773.658936,575.484375 780.955078,568.750854 781.872070,560.688354 
	C782.957947,551.141357 778.265808,543.871887 769.364075,541.117920 
	C764.785583,539.701294 760.105347,540.524048 754.485413,540.223633 
z"/>
<path fill="#000000" opacity="1.000000" stroke="none" 
	d="
M291.913818,579.954346 
	C293.123047,548.387024 311.887848,525.888550 341.331604,520.237488 
	C376.519562,513.483948 410.262390,542.652161 410.704346,578.501526 
	C411.060089,607.355530 387.536957,640.326904 349.178070,639.003662 
	C317.151733,637.898865 294.367065,614.266785 291.913818,579.954346 
M383.522675,600.992737 
	C395.131287,581.671753 389.398254,556.762329 370.704346,545.298645 
	C358.111633,537.576416 341.188354,538.063721 329.222168,546.820679 
	C315.365448,556.960999 310.887177,571.164673 313.937012,587.392578 
	C317.006683,603.725830 327.004456,614.649841 343.665100,617.913696 
	C360.145752,621.142395 373.396484,615.337646 383.522675,600.992737 
z"/>
<path fill="#000000" opacity="1.000000" stroke="none" 
	d="
M695.779114,638.174072 
	C671.814514,638.180847 648.326355,638.198059 624.838257,638.178833 
	C618.549072,638.173645 618.537170,638.038330 618.547546,631.673889 
	C618.603882,597.024719 618.618408,562.375488 618.659241,527.726318 
	C618.668152,520.163025 618.690369,520.097351 626.049500,520.076172 
	C649.370911,520.008850 672.693054,520.073242 696.013428,519.892273 
	C700.448364,519.857910 702.350098,521.181763 702.229187,525.865906 
	C701.790222,542.872498 704.357117,539.999084 687.987061,540.157959 
	C673.662781,540.296997 659.331970,540.288391 645.011353,539.991516 
	C640.085693,539.889343 638.583618,541.720581 638.811401,546.400574 
	C639.102539,552.382507 639.094788,558.403320 638.762390,564.382263 
	C638.555298,568.107117 640.080627,568.943726 643.383423,568.919067 
	C657.542236,568.813171 671.702148,568.848267 685.861694,568.863159 
	C692.124084,568.869751 692.286987,569.066162 692.323303,575.308533 
	C692.399109,588.349365 692.399109,588.346558 679.556396,588.368652 
	C667.729065,588.389038 655.900574,588.517883 644.075012,588.385315 
	C639.950378,588.339050 638.027466,589.437195 638.307007,594.045410 
	C638.699707,600.518494 638.576233,607.038696 638.350342,613.527527 
	C638.214539,617.429260 639.600830,618.778748 643.539185,618.740295 
	C661.028870,618.569458 678.523315,618.803711 696.010498,618.532288 
	C700.942566,618.455811 702.647766,620.195862 702.176331,624.890442 
	C701.927673,627.366394 701.925903,629.895630 702.105225,632.379700 
	C702.417908,636.710510 700.543457,638.601440 695.779114,638.174072 
z"/>
<path fill="#000000" opacity="1.000000" stroke="none" 
	d="
M618.733704,443.999939 
	C618.748535,427.500488 618.881348,411.499725 618.701782,395.502441 
	C618.652466,391.107635 620.217102,389.713745 624.523132,389.735474 
	C648.521545,389.856628 672.521790,389.846741 696.519592,389.655304 
	C700.992615,389.619690 702.224121,391.314789 702.260010,395.529114 
	C702.378052,409.384583 702.503357,409.384155 688.657043,409.381134 
	C673.990906,409.377960 659.323303,409.484558 644.659485,409.296356 
	C640.655701,409.244995 638.916016,410.300232 639.123535,414.600647 
	C639.428345,420.919312 639.426086,427.272919 639.140320,433.592896 
	C638.945679,437.898651 640.750610,438.968384 644.721924,438.922333 
	C658.552795,438.761993 672.388184,438.990173 686.218933,438.821960 
	C690.588196,438.768829 692.874084,439.947388 692.357849,444.748383 
	C692.074341,447.384796 692.094299,450.095673 692.344299,452.738281 
	C692.770325,457.242676 690.725342,458.439240 686.496338,458.387268 
	C672.499207,458.215332 658.496521,458.491913 644.499878,458.301880 
	C640.287170,458.244720 638.937744,459.735260 639.106628,463.810272 
	C639.368530,470.133057 639.384827,476.480774 639.145020,482.804260 
	C638.992249,486.832458 640.645630,487.957245 644.438843,487.924988 
	C661.437012,487.780365 678.439087,487.989105 695.435059,487.743378 
	C700.367920,487.672089 702.342712,489.173035 702.202759,494.267242 
	C701.786011,509.429626 704.252441,507.876984 688.592407,507.850555 
	C667.274658,507.814575 645.957092,507.472931 624.639832,507.509735 
	C620.104431,507.517578 618.579895,506.112274 618.633545,501.497345 
	C618.854370,482.500397 618.730835,463.499451 618.733704,443.999939 
z"/>
<path fill="#000000" opacity="1.000000" stroke="none" 
	d="
M396.116821,488.091614 
	C378.738037,506.179291 358.204193,513.584351 334.243011,505.886261 
	C310.313843,498.198395 296.769958,480.660522 293.039215,455.985291 
	C289.424744,432.079132 302.700317,406.933044 324.038147,395.819275 
	C346.990326,383.864716 373.045258,387.051819 391.772125,404.220062 
	C394.707397,406.911041 397.309418,409.970093 400.013824,412.906616 
	C401.674103,414.709442 401.567657,416.241425 399.521149,417.919495 
	C396.567139,420.341553 393.704987,422.926666 391.119476,425.733154 
	C388.373322,428.714050 386.485046,428.391144 383.971802,425.330658 
	C375.115875,414.546417 363.892853,408.753662 349.601257,409.313477 
	C328.413452,410.143402 310.893768,431.078583 313.545074,452.113281 
	C315.264069,465.751221 321.221954,476.477234 333.152008,483.445465 
	C349.774292,493.154388 370.016449,488.996002 382.770386,473.037048 
	C385.898682,469.122742 388.118774,468.882965 391.389435,472.262268 
	C392.654785,473.569702 394.213287,474.590485 395.615173,475.769318 
	C402.170593,481.281769 402.167725,481.285187 396.116821,488.091614 
z"/>
<path fill="#000000" opacity="1.000000" stroke="none" 
	d="
M503.009460,527.932495 
	C491.110504,546.254456 479.440430,564.295288 467.703308,582.292419 
	C465.714661,585.341675 464.906708,588.513184 464.948792,592.174377 
	C465.096191,605.002441 465.037842,617.833557 464.975037,630.663147 
	C464.940674,637.676636 464.456390,638.158386 457.652588,638.109619 
	C441.769867,637.995789 444.228546,639.669128 444.146027,624.534851 
	C444.083344,613.045593 443.508667,601.542786 444.407196,590.064087 
	C444.656006,586.885376 442.791718,584.700256 441.274231,582.387878 
	C428.935059,563.585266 416.505493,544.841980 404.161285,526.042664 
	C403.123718,524.462646 401.308044,523.124023 401.982208,519.910278 
	C408.873291,519.802429 415.940521,519.248840 422.953339,520.275330 
	C425.508240,520.649292 426.457306,523.673340 427.817444,525.717224 
	C435.662659,537.506104 443.419403,549.353821 451.245941,561.155151 
	C452.141968,562.506287 452.747345,564.154236 454.977905,565.199524 
	C460.365906,556.926697 465.776794,548.603149 471.204346,540.290466 
	C474.938202,534.571838 478.773438,528.917419 482.403900,523.134155 
	C483.897705,520.754517 485.731323,519.729187 488.549103,519.797668 
	C494.478912,519.941895 500.414673,519.841492 506.530182,519.841492 
	C506.832275,523.727173 504.279205,525.347229 503.009460,527.932495 
z"/>
<path fill="#000000" opacity="1.000000" stroke="none" 
	d="
M283.285706,591.993225 
	C284.728943,609.432800 278.678131,623.022034 264.374084,632.260254 
	C242.280457,646.529541 207.781830,638.347290 200.434265,608.000366 
	C200.316650,607.514648 200.155121,607.038391 200.059021,606.548828 
	C198.232925,597.246704 199.197617,596.044189 208.518158,595.988037 
	C208.851486,595.986023 209.184799,595.984619 209.518127,595.982788 
	C218.015991,595.937317 218.015976,595.937317 220.297699,603.838501 
	C223.352188,614.415710 232.766617,620.219238 244.301361,618.635620 
	C254.982361,617.169189 262.791870,608.845215 262.845337,598.398682 
	C262.966461,574.733154 262.898071,551.066650 262.924561,527.400574 
	C262.932709,520.116638 263.151611,519.928467 270.579651,519.911926 
	C283.318359,519.883606 283.314514,519.883606 283.307739,532.495850 
	C283.297241,552.162170 283.292572,571.828430 283.285706,591.993225 
z"/>
<path fill="#000000" opacity="1.000000" stroke="none" 
	d="
M528.972107,427.000000 
	C528.976990,416.006805 529.064392,405.512695 528.947632,395.020874 
	C528.905823,391.265961 530.165039,389.424011 534.164795,389.699554 
	C537.314148,389.916534 540.507629,389.937592 543.651611,389.680573 
	C547.920227,389.331635 549.582458,390.823151 549.494446,395.311584 
	C549.060425,417.450012 550.291443,439.589386 549.497009,461.736664 
	C549.194092,470.180206 549.447754,478.643707 549.447754,486.685181 
	C551.989746,488.271851 554.038391,487.775726 555.989868,487.779968 
	C571.479736,487.813660 586.971252,487.907684 602.458862,487.711700 
	C606.820557,487.656555 608.244934,489.195129 608.272522,493.506470 
	C608.361572,507.443207 608.497437,507.425934 594.828308,507.411987 
	C574.841187,507.391602 554.852905,507.285034 534.867676,507.477112 
	C530.287659,507.521149 528.765076,506.016724 528.800537,501.451874 
	C528.992004,476.802277 528.941223,452.150818 528.972107,427.000000 
z"/>
<path fill="#000000" opacity="1.000000" stroke="none" 
	d="
M810.693604,632.824829 
	C810.688782,631.516663 810.686279,630.685730 810.684753,629.854736 
	C810.666199,620.051575 813.859192,617.618652 823.607971,620.035278 
	C824.233521,620.190247 825.185486,620.373596 825.359436,620.799500 
	C827.314270,625.586670 826.540161,630.635620 825.940186,635.458374 
	C825.502808,638.974792 821.716187,638.113525 819.296204,637.942200 
	C815.890625,637.701050 810.536316,640.360291 810.693604,632.824829 
z"/>
</svg>